<?xml version="1.0" encoding="UTF-8" standalone="no"?>
<svg xmlns="http://www.w3.org/2000/svg" version="1.1" viewBox="-1 0 124 158">
<path d="m25.4 130.95c-15.904-11.42-25.399-30.02-25.399-49.77-.00040759-25.256 14.963-47.525 38.122-56.73 1.203-.478 2.426-.919 3.667-1.319l.633 2.024c-1.198.385-2.378.811-3.539 1.273-22.352 8.884-36.793 30.375-36.793 54.752-.0004 19.06 9.164 37.02 24.515 48.03l-1.206 1.74z"/>
<path  d="m59.977 142.08c-2.692 0-5.386-.18-8.009-.54l.278-2.1c2.53.34 5.131.52 7.731.52 31.918 0 57.883-26.37 57.883-58.78 0-6.873-1.16-13.609-3.44-20.02l1.96-.724c2.37 6.645 3.57 13.624 3.57 20.744 0 33.58-26.901 60.9-59.973 60.9"/>
<polygon points="62.49 0 38.342 62.062 63.422 62.067 26.08 158.08 104.77 54.213 76.62 54.229 106.66 0"/>
</svg>
